<?xml version="1.0" encoding="UTF-8" standalone="no"?>
<!-- Created with Inkscape (http://www.inkscape.org/) -->

<svg
   xmlns:dc="http://purl.org/dc/elements/1.1/"
   xmlns:cc="http://creativecommons.org/ns#"
   xmlns:rdf="http://www.w3.org/1999/02/22-rdf-syntax-ns#"
   xmlns:svg="http://www.w3.org/2000/svg"
   xmlns="http://www.w3.org/2000/svg"
   xmlns:xlink="http://www.w3.org/1999/xlink"
   version="1.1"
   width="744.09448"
   height="1052.3622"
   id="svg3075">
  <title
     id="title3102">Logo</title>
  <defs
     id="defs3077">
    <radialGradient
       cx="-702.95972"
       cy="401.10645"
       r="126.01287"
       fx="-702.95972"
       fy="401.10645"
       id="radialGradient3972"
       xlink:href="#linearGradient3966"
       gradientUnits="userSpaceOnUse"
       gradientTransform="matrix(1,0,0,1.1487357,-43.43656,-9.1512294)" />
    <linearGradient
       id="linearGradient3966">
      <stop
         id="stop3968"
         style="stop-color:#0000ff;stop-opacity:0"
         offset="0" />
      <stop
         id="stop3970"
         style="stop-color:#3f31ff;stop-opacity:1"
         offset="1" />
    </linearGradient>
    <radialGradient
       cx="-702.95972"
       cy="401.10645"
       r="126.01287"
       fx="-702.95972"
       fy="401.10645"
       id="radialGradient3073"
       xlink:href="#linearGradient3966"
       gradientUnits="userSpaceOnUse"
       gradientTransform="matrix(1,0,0,1.1487357,-43.43656,-9.1512294)" />
  </defs>
  <metadata
     id="metadata3080">
    <rdf:RDF>
      <cc:Work
         rdf:about="">
        <dc:format>image/svg+xml</dc:format>
        <dc:type
           rdf:resource="http://purl.org/dc/dcmitype/StillImage" />
        <dc:title>Logo</dc:title>
      </cc:Work>
    </rdf:RDF>
  </metadata>
  <g
     id="layer1">
    <g
       transform="matrix(2.1916116,0,0,2.1916116,2024.8125,-602.67887)"
       id="g3956">
      <path
         d="m -757.67995,590.83958 c -4.83107,-3.02274 -11.80607,-7.11589 -15.5,-9.09589 -10.26686,-5.50316 -15.58391,-8.64037 -17.03768,-10.0527 -0.72678,-0.70607 -1.71319,-1.28377 -2.19201,-1.28377 -0.47881,0 -4.83417,-2.41322 -9.67857,-5.36271 -4.84439,-2.94949 -11.18115,-6.66199 -14.08169,-8.25 -2.90053,-1.58801 -6.95053,-3.89656 -9,-5.13012 -2.04946,-1.23356 -5.0763,-2.94693 -6.7263,-3.80749 -1.65,-0.86055 -11.325,-6.41128 -21.5,-12.33494 l -18.5,-10.7703 -0.25648,-73.12627 -0.25648,-73.12627 4.73613,-2.79595 c 2.60487,-1.53777 5.64529,-3.3408 6.75648,-4.00673 1.11119,-0.66593 2.69535,-1.54345 3.52035,-1.95004 0.825,-0.4066 4.875,-2.73919 9,-5.18353 7.52125,-4.45686 9.37588,-5.52802 20.5,-11.83994 3.3,-1.87245 6.675,-3.81108 7.5,-4.30806 3.08333,-1.85741 19.66457,-11.38836 24,-13.79528 2.475,-1.37405 5.62693,-3.22145 7.00429,-4.10532 5.61292,-3.60191 9.67808,-5.95237 21.33685,-12.33689 1.73737,-0.95141 3.83386,-2.20533 4.65886,-2.78649 2.37842,-1.67546 6.26574,-3.85748 9.25,-5.1922 1.5125,-0.67647 2.75,-1.54553 2.75,-1.93125 0,-1.34853 5.67376,-1.9331 8.07628,-0.8321 3.56221,1.63245 8.01872,4.19386 11.42372,6.56588 1.65,1.14943 4.35,2.7677 6,3.59616 1.65,0.82846 7.05,3.88235 12,6.78643 14.44081,8.47218 15.81602,9.26342 19.5,11.21966 1.925,1.0222 5.3,2.98132 7.5,4.3536 2.2,1.37228 5.125,3.03829 6.5,3.70225 1.375,0.66396 2.725,1.48009 3,1.81363 0.275,0.33353 3.65,2.36229 7.5,4.50834 3.85,2.14605 8.35,4.66475 10,5.5971 1.65,0.93236 4.125,2.2786 5.5,2.99166 1.375,0.71305 2.725,1.57365 3,1.91244 0.275,0.33879 1.7055,1.24795 3.17888,2.02036 2.63436,1.38103 15.47241,8.67591 23.32112,13.2516 l 4,2.33194 0.25639,73.43877 0.25639,73.43876 -2.75639,1.17009 c -1.51601,0.64355 -4.55639,2.26371 -6.75639,3.60035 -4.386,2.66477 -14.45613,8.49284 -21.5,12.4431 -4.60483,2.58242 -12.10899,6.96779 -31.5,18.40833 -6.05,3.56945 -14.15,8.21838 -18,10.33094 -3.85,2.11256 -11.40335,6.46215 -16.78523,9.66576 -5.38187,3.2036 -9.96728,5.82473 -10.18979,5.82473 -0.22251,0 -4.14416,2.24914 -8.71477,4.99809 -4.57062,2.74895 -9.21021,4.98281 -10.31021,4.96413 -1.1,-0.0187 -5.95269,-2.50712 -10.78375,-5.52986 z m 29.12167,-10.80562 c 2.93586,-1.71971 6.53586,-3.91188 8,-4.87149 1.46414,-0.95961 4.46208,-2.64948 6.66208,-3.75525 2.2,-1.10577 5.35,-2.8938 7,-3.97339 1.65,-1.07959 4.35,-2.62007 6,-3.42328 1.65,-0.80321 6.375,-3.47917 10.5,-5.94657 4.125,-2.4674 14.025,-8.20178 22,-12.74306 7.975,-4.54128 14.725,-8.51716 15,-8.83529 0.79849,-0.92371 6.17471,-3.9272 10.25,-5.7263 2.0625,-0.91052 3.75,-2.03723 3.75,-2.5038 0,-0.46657 0.45631,-0.84831 1.01402,-0.84831 1.3534,0 7.95789,-4.31061 7.9736,-5.20419 0.007,-0.38731 -2.08403,-2.30493 -4.64631,-4.26137 -4.3065,-3.28826 -4.79161,-3.43689 -6.41682,-1.96611 -1.33779,1.21069 -2.22659,1.34036 -3.71764,0.54237 -2.02329,-1.08283 -5.69726,0.33682 -12.70685,4.91002 -1.65,1.07649 -3.675,2.25346 -4.5,2.61548 -1.29751,0.56937 -38.2426,21.82059 -48.7862,28.06235 -2.04259,1.20921 -4.66184,2.63606 -5.82055,3.17079 -1.15871,0.53473 -4.6246,2.58288 -7.70196,4.55145 -3.07737,1.96856 -5.91186,3.57921 -6.29886,3.57921 -1.82843,0 -7.39243,5.32557 -7.39243,7.07564 0,1.19998 -1.00825,2.3572 -2.57165,2.9516 -2.47522,0.94108 -2.54553,1.19324 -1.87513,6.72525 0.38309,3.16113 0.90492,6.1061 1.15963,6.54438 0.25471,0.43827 2.11102,-0.1797 4.12513,-1.37327 2.01411,-1.19357 6.06408,-3.57716 8.99994,-5.29686 z m -20.47977,2.62326 c 1.11244,-6.73022 0.78661,-9.06928 -1.35815,-9.75 -1.1,-0.34913 -2,-1.43471 -2,-2.4124 0,-0.97769 -0.7875,-2.47834 -1.75,-3.33478 -1.5315,-1.36273 -23.21264,-14.19626 -27.25,-16.12985 -0.825,-0.39511 -3.15995,-1.70942 -5.18878,-2.92068 -2.02883,-1.21126 -10.80383,-6.31288 -19.5,-11.33694 -8.69617,-5.02405 -20.65595,-11.94976 -26.57728,-15.39045 -10.63965,-6.18236 -10.79047,-6.23372 -12.84538,-4.37404 -2.04441,1.85016 -2.11187,1.84158 -4.01682,-0.51093 -2.15964,-2.66705 -3.47783,-2.31942 -9.37174,2.47149 l -3,2.43858 3,2.46902 c 1.65,1.35796 3.9,2.76861 5,3.13478 1.1,0.36617 2.225,0.98564 2.5,1.37661 0.275,0.39096 1.72046,1.34281 3.21212,2.11522 1.49167,0.7724 8.22921,4.55437 14.97233,8.40437 6.74312,3.85 12.72266,7.18251 13.28788,7.40558 0.56522,0.22307 2.37767,1.41125 4.02767,2.64041 1.65,1.22915 6.825,4.32146 11.5,6.87178 4.675,2.55033 10.3,5.75252 12.5,7.11598 2.2,1.36346 5.35,3.1644 7,4.00209 1.65,0.83768 4.35,2.34842 6,3.35719 12.39065,7.57533 27.1916,16.03186 28.11916,16.0659 0.61553,0.0226 1.39808,-1.64643 1.73899,-3.70893 z m 14.35813,-35.95301 c 0.59318,-1.54581 -1.13361,-46.20962 -2.41768,-62.53399 -0.46719,-5.93929 -0.30903,-6.81905 1.33573,-7.42999 1.02612,-0.38115 3.55612,-1.79875 5.62223,-3.15023 l 3.75656,-2.45723 5.51533,3.66197 c 3.75912,2.49592 5.64234,3.25607 5.91421,2.38723 1.24281,-3.97177 1.41531,-3.74178 0.91899,1.22525 -0.30228,3.025 -0.95479,7.075 -1.45004,9 -2.30497,8.95924 -0.57312,29.73849 2.75602,33.06763 0.58532,0.58532 5.53002,0.88442 11.86785,0.71787 l 10.86447,-0.2855 2.63526,-5 c 1.44939,-2.75 3.60772,-6.575 4.79629,-8.5 1.85882,-3.01056 2.15878,-4.96833 2.14495,-14 -0.0197,-12.89533 -1.48427,-23.59989 -3.68919,-26.96503 -1.05359,-1.60798 -1.75774,-5.0897 -1.92818,-9.53399 -0.50509,-13.1709 -1.10945,-23.06392 -1.68196,-27.53259 -0.31486,-2.45761 -0.33802,-3.68089 -0.0515,-2.71839 0.28655,0.9625 0.8255,1.7277 1.19767,1.70044 1.83248,-0.13423 28.63959,-14.73721 29.4699,-16.05351 0.71008,-1.12572 -0.36765,-3.63319 -4.16774,-9.6967 -2.81898,-4.4981 -5.12545,-8.63328 -5.12545,-9.18929 0,-1.74556 -2.88145,-1.10888 -7.26987,1.60633 -12.8632,7.95874 -19.73013,12.86456 -19.73013,14.09546 0,0.76262 0.61799,2.60174 1.37331,4.08693 0.75533,1.48519 1.68579,3.82534 2.0677,5.20034 0.38191,1.375 -1.18162,-1.27313 -3.4745,-5.88472 -5.52631,-11.11488 -16.40799,-22.35183 -26.46651,-27.33062 -10.5563,-5.22517 -14.7452,-6.05583 -28.17041,-5.58619 -10.17207,0.35584 -12.74034,0.80484 -18.32959,3.20446 -14.93409,6.41163 -27.63802,19.62145 -33.48685,34.82036 -1.32846,3.45219 -2.43739,5.70527 -2.46427,5.00684 -0.0269,-0.69843 1.07612,-4.03851 2.45112,-7.42241 1.375,-3.38389 2.5,-6.28543 2.5,-6.44785 0,-1.03317 -24.61103,-16.36025 -26.26761,-16.35876 -0.67782,6.2e-4 -3.65272,4.34256 -6.6109,9.64877 l -5.37851,9.64764 2.37851,1.80839 c 1.30818,0.99462 8.50562,4.86517 15.9943,8.60124 l 13.6158,6.79285 -0.45375,11 c -0.24955,6.05 -0.90779,12.48896 -1.46275,14.30881 -0.7136,2.34006 -0.66913,4.12935 0.15186,6.11141 1.01387,2.4477 0.8362,3.28103 -1.40304,6.58074 -1.51542,2.2331 -2.56391,5.17649 -2.56391,7.1976 0,1.88071 -0.40109,3.17159 -0.89132,2.86861 -1.70874,-1.05606 -25.07364,10.83754 -25.09806,12.77584 -0.0206,1.63767 10.50351,19.61347 11.48938,19.62449 0.55,0.006 3.68646,-1.69058 6.96991,-3.77052 l 5.9699,-3.7817 3.88091,8.04236 c 5.7564,11.92894 5.15995,11.54236 17.80859,11.54236 l 10.81933,0 1.73677,-3.25 c 1.41581,-2.64939 1.7321,-5.83723 1.71146,-17.25 -0.0147,-8.11234 -0.58341,-16.31301 -1.35239,-19.5 -0.7299,-3.025 -1.70799,-7.075 -2.17354,-9 -0.46554,-1.925 -1.74534,-4.9625 -2.84399,-6.75 -1.98565,-3.23063 -2.04536,-3.25 -10.02073,-3.25 -7.68003,0 -7.97154,-0.0827 -6.81604,-1.93292 0.96553,-1.54606 0.84616,-3.46408 -0.59638,-9.58301 -1.70988,-7.25292 -1.63899,-15.59677 0.17261,-20.31773 0.49784,-1.29735 0.67135,-1.26918 1.18399,0.19226 0.33036,0.9418 5.76418,4.2839 12.07513,7.42688 l 11.47447,5.71452 0.29077,6.53431 0.29078,6.5343 -5.06273,2.13894 -5.06272,2.13894 2.50766,3.69525 c 2.34039,3.44875 4.51784,9.321 4.53066,12.21847 0.003,0.72604 2.33412,-0.28584 5.49902,-2.38722 l 5.49344,-3.64744 3.75656,2.45723 c 2.06611,1.35148 4.59611,2.76908 5.62223,3.15023 1.64476,0.61094 1.80292,1.4907 1.33573,7.42999 -1.28407,16.32437 -3.01086,60.98818 -2.41768,62.53399 0.55845,1.45528 2.19001,1.70301 11.21628,1.70301 9.02627,0 10.65783,-0.24773 11.21628,-1.70301 z m -77.35578,-55.29699 c 0,-5.225 0.16854,-7.3625 0.37454,-4.75 0.206,2.6125 0.206,6.8875 0,9.5 -0.206,2.6125 -0.37454,0.475 -0.37454,-4.75 z m 0.71845,-11.41667 c -0.0434,-1.05416 0.19292,-1.64479 0.52522,-1.3125 0.33229,0.33229 0.36781,1.19479 0.0789,1.91667 -0.31922,0.79773 -0.55618,0.56078 -0.60416,-0.60417 z m 98.53404,-9.58333 c 0.3258,-1.375 1.43104,-3.96258 2.45608,-5.75019 l 1.8637,-3.25019 -5.01305,-2.5403 -5.01305,-2.54031 0.29666,-6.19614 0.29667,-6.19613 12.27365,-6.01337 c 11.47948,-5.62427 12.23889,-6.17513 11.73627,-8.51337 -0.50494,-2.34902 -0.46168,-2.37921 0.71632,-0.5 1.24933,1.99302 1.51357,12.50531 0.67232,26.7475 l -0.39856,6.74751 -7.09501,0.002 c -7.81354,0.003 -8.94294,0.6728 -11.80294,7.0025 -0.9933,2.19834 -1.36113,2.57024 -0.98906,1 z M -767.8962,427.6153 c -1.65,-0.93944 -7.0167,-4.37556 -11.92601,-7.63582 l -8.92601,-5.92774 -1.57399,2.28028 c -0.86569,1.25415 -2.8365,4.59663 -4.37957,7.42774 -1.54307,2.8311 -2.50071,4.02246 -2.12808,2.64746 1.11454,-4.11275 9.22454,-15.64706 13.85712,-19.70808 5.41163,-4.74395 15.24855,-9.76728 23.03664,-11.76392 6.84873,-1.75582 18.84077,-1.98811 26.60645,-0.51538 8.87305,1.68274 21.13186,8.25721 27.50803,14.75271 5.25513,5.35348 11.44572,14.46015 11.376,16.73467 -0.0169,0.55 -0.73576,-0.35 -1.59756,-2 -2.54047,-4.86397 -5.79099,-9.48582 -6.6765,-9.49317 -0.45291,-0.004 -6.03509,3.36817 -12.40484,7.49317 -6.36976,4.125 -11.84919,7.48505 -12.17653,7.46678 -0.32733,-0.0183 -2.39515,-1.2808 -4.59515,-2.80561 l -4,-2.77238 -0.0318,-14.4444 -0.0318,-14.44439 -9.95999,0 -9.95998,0 0.31689,14.5 0.31688,14.5 -4.61588,2.75 c -2.53873,1.5125 -4.71003,2.73114 -4.82512,2.70808 -0.11508,-0.023 -1.55924,-0.81055 -3.20924,-1.75 z m -35.42105,-1.62475 c -0.0434,-1.05416 0.19292,-1.64479 0.52522,-1.3125 0.33229,0.33229 0.36781,1.19479 0.0789,1.91667 -0.31922,0.79773 -0.55618,0.56078 -0.60416,-0.60417 z m 114,-3 c -0.0434,-1.05416 0.19292,-1.64479 0.52522,-1.3125 0.33229,0.33229 0.36781,1.19479 0.0789,1.91667 -0.31922,0.79773 -0.55618,0.56078 -0.60416,-0.60417 z m -169.03836,90.20355 c 4.40175,-2.01934 4.77536,-2.45716 4.26679,-5 -0.41401,-2.07004 -0.16691,-2.78688 0.96064,-2.78688 0.8349,0 1.79115,-0.7118 2.125,-1.58179 0.79288,-2.06623 0.79288,-102.77019 0,-104.83642 -0.33385,-0.86999 -1.2901,-1.58179 -2.125,-1.58179 -1.13302,0 -1.37449,-0.71761 -0.95213,-2.82945 0.51239,-2.56191 0.14346,-3.03469 -3.90175,-5 -8.1,-3.93529 -7.41414,-9.65498 -7.41414,61.82945 0,46.16649 0.3088,64 1.10822,64 0.60952,0 3.27909,-0.99591 5.93237,-2.21312 z m 230.95941,-61.78688 c 0,-68.77607 0.2198,-65.86909 -4.76357,-63.00043 -0.95504,0.54976 -2.98431,1.44257 -4.50949,1.98402 -2.34879,0.83383 -2.67384,1.37979 -2.12454,3.5684 0.49315,1.96484 0.13928,2.94064 -1.47693,4.07268 -2.12038,1.48517 -2.12547,1.61173 -2.12547,52.85025 0,28.24883 0.27314,52.07331 0.60699,52.94329 0.33384,0.86999 1.25087,1.58179 2.03785,1.58179 0.95198,0 1.33452,0.88194 1.14301,2.63516 -0.23539,2.15489 0.44118,3.05827 3.71215,4.95663 8.18269,4.74896 7.5,10.35539 7.5,-61.59179 z m -34.25,48.54024 c 2.8875,-5.16194 5.24653,-9.75769 5.2423,-10.21279 -0.013,-1.39967 -20.20514,-12.27242 -22.85893,-12.30874 -0.93152,-0.0128 -1.17465,0.69766 -0.76366,2.23129 0.33164,1.2375 0.60913,7.09715 0.61664,13.02144 l 0.0136,10.77144 2.75,1.18874 c 1.5125,0.65381 3.82319,1.99416 5.13486,2.97856 1.31167,0.9844 2.88667,1.77307 3.5,1.75261 0.61333,-0.0205 3.47764,-4.26062 6.36514,-9.42255 z M -849.07884,386.65722 c 1.44751,-1.28271 2.0916,-1.41622 2.41208,-0.5 0.63196,1.80672 4.04518,1.53509 7.11619,-0.56631 1.4599,-0.99897 7.30228,-4.48647 12.98306,-7.75 5.68077,-3.26353 11.53077,-6.71451 13,-7.66884 1.46922,-0.95434 3.68727,-2.18201 4.929,-2.72817 1.24173,-0.54617 9.01256,-4.94035 17.26851,-9.76485 8.25595,-4.8245 17.80824,-10.2996 21.2273,-12.16689 3.41906,-1.86728 8.41122,-4.90478 11.0937,-6.75 2.68247,-1.84521 5.27673,-3.35494 5.76501,-3.35494 0.48829,0 0.88779,-1.35 0.88779,-3 0,-2.33333 0.44444,-3 2,-3 1.77893,0 2,-0.66666 2,-6.03138 0,-7.01856 -1.45262,-8.33095 -5.60546,-5.06433 -1.46534,1.15264 -3.01404,2.09571 -3.44155,2.09571 -1.18092,0 -15.40523,8.29281 -15.78632,9.20347 -0.18334,0.43809 -0.93869,0.79653 -1.67857,0.79653 -0.73989,0 -1.93989,0.57958 -2.66667,1.28794 -0.72679,0.70837 -2.89643,2.0876 -4.82143,3.06496 -5.16137,2.62053 -13.24409,7.2599 -35.23883,20.22662 -17.72179,10.44766 -18.94464,11.14855 -23.26117,13.33253 -7.84473,3.96909 -18.90995,10.8178 -19.28219,11.93453 -0.42615,1.27845 1.81573,3.80158 5.68376,6.39683 3.1882,2.13911 3.00953,2.13889 5.41579,0.007 z m 211.93549,-0.5 c 5.27062,-3.73878 6.67655,-5.24846 5.94485,-6.38356 -0.38373,-0.59529 -3.8477,-2.8938 -7.6977,-5.1078 -3.85,-2.214 -12.52993,-7.22792 -19.28873,-11.14205 -6.7588,-3.91412 -12.61024,-7.11659 -13.00319,-7.11659 -0.39296,0 -2.92975,-1.575 -5.6373,-3.5 -2.70755,-1.925 -5.25797,-3.5 -5.6676,-3.5 -0.40962,0 -4.26791,-2.17462 -8.57397,-4.83249 -4.30607,-2.65786 -10.30421,-6.18231 -13.32921,-7.83209 -8.6545,-4.72001 -10.16589,-5.59553 -15.74013,-9.11794 -2.88207,-1.82121 -6.70707,-3.98106 -8.5,-4.79968 -1.79293,-0.81862 -5.45289,-2.84199 -8.13326,-4.49638 -2.68036,-1.65439 -5.09266,-2.78871 -5.36065,-2.52071 -0.268,0.268 -0.72409,3.43748 -1.01353,7.04328 -0.48777,6.07666 -0.37915,6.55601 1.48566,6.55601 1.40461,0 2.18133,0.84712 2.57319,2.80639 0.40709,2.03546 1.88363,3.55856 5.375,5.54447 2.64755,1.50595 6.16372,3.56245 7.81372,4.57002 1.65,1.00756 5.925,3.51758 9.5,5.57783 3.575,2.06025 8.075,4.67309 10,5.80632 1.925,1.13322 6.425,3.6028 10,5.48794 3.575,1.88514 7.11049,3.92285 7.85665,4.52824 0.74616,0.60539 2.18271,1.56828 3.19233,2.13975 1.00962,0.57147 7.59913,4.3627 14.64335,8.42496 22.3069,12.86393 23.38569,13.35345 25.40359,11.52727 1.60129,-1.44915 1.83666,-1.40768 2.85968,0.50385 1.38192,2.58214 1.42353,2.58083 5.29725,-0.16704 z m -97.47207,-20.5 0.28078,-12.25 -11.53078,0 -11.53078,0 0,10.91821 c 0,6.00502 0.27878,11.6447 0.61951,12.53262 0.52628,1.37148 2.21916,1.57188 11.25,1.33179 l 10.63049,-0.28262 0.28078,-12.25 z"
         id="path3964"
         style="fill:url(#radialGradient3073);fill-opacity:1" />
    </g>
  </g>
</svg>
